<svg width="48" height="48" viewBox="0 0 48 48" fill="none" xmlns="http://www.w3.org/2000/svg">
<path d="M37.2601 12.9148C36.4939 12.1483 35.5843 11.5403 34.5831 11.1254C33.5819 10.7106 32.5088 10.4971 31.4251 10.4971C30.3413 10.4971 29.2682 10.7106 28.267 11.1254C27.2658 11.5403 26.3562 12.1483 25.5901 12.9148L24.0001 14.5048L22.4101 12.9148C20.8625 11.3673 18.7636 10.4979 16.5751 10.4979C14.3865 10.4979 12.2876 11.3673 10.7401 12.9148C9.19252 14.4623 8.32312 16.5613 8.32312 18.7498C8.32312 20.9384 9.19252 23.0373 10.7401 24.5848L12.3301 26.1748L24.0001 37.8448L35.6701 26.1748L37.2601 24.5848C38.0265 23.8187 38.6346 22.909 39.0494 21.9078C39.4643 20.9067 39.6778 19.8335 39.6778 18.7498C39.6778 17.6661 39.4643 16.593 39.0494 15.5918C38.6346 14.5906 38.0265 13.6809 37.2601 12.9148V12.9148Z" stroke="#1E5128" stroke-width="2" stroke-linecap="round" stroke-linejoin="round"/>
</svg>
