<svg id="Layer_2" data-name="Layer 2" xmlns="http://www.w3.org/2000/svg" viewBox="0 0 263.85 155"><defs><style>.cls-1{fill:#191a19;}.cls-2{fill:#1e5128;}</style></defs><title>logo</title><path class="cls-1" d="M335.16,319.76a13,13,0,0,0-4.36.74L322.27,312a41.16,41.16,0,0,0,3.09-5h-4.44a36.53,36.53,0,0,1-2.73,3.95l-1.07,1.35L330,325.13l1.24-.59a9,9,0,0,1,4-.9,9.2,9.2,0,1,1-9.2,9.2,9.5,9.5,0,0,1,.21-2l.23-1L313,316.38l-1.35,1A37.49,37.49,0,0,1,293.12,325l-1.71.2v16.86l1.12.52a9.2,9.2,0,1,1-8,.13l1.06-.54v-17L283.9,325a37.42,37.42,0,0,1-18.38-7.66l-1.35-1.05-12.43,12.42.4,1.14a9.18,9.18,0,1,1-5.65-5.65l1.15.4,12.42-12.42L259,310.78a37.49,37.49,0,0,1-7.66-18.39l-.21-1.69H233l-.52,1.12a9.2,9.2,0,1,1-8.35-13.07,9.14,9.14,0,0,1,8.22,5.07l.54,1.07H251.1l.2-1.72a37.49,37.49,0,0,1,7.57-18.51l1-1.35L247.64,251l-1.15.4a9.24,9.24,0,1,1,5.65-5.66l-.4,1.15L264,259.17l1.35-1.07a37.51,37.51,0,0,1,18.56-7.79l1.69-.22V230.84l-1.06-.54a9.2,9.2,0,1,1,8,.13l-1.12.52v19.12l1.71.2a37.59,37.59,0,0,1,18.69,7.7l1.35,1.06,12-12-.37-1.13a9,9,0,0,1-.45-2.83,9.18,9.18,0,1,1,6,8.62l-1.16-.44-11.88,11.88,1.05,1.35A37.2,37.2,0,0,1,321.9,270h4.33a41,41,0,0,0-3.82-6.52l7.76-7.77a13.23,13.23,0,0,0,3.38.44,13.08,13.08,0,1,0-13.08-13.08,12.9,12.9,0,0,0,.31,2.85l-8,8a41.44,41.44,0,0,0-17.54-7.23v-13.3a13.09,13.09,0,1,0-13.56-.2v13.55a41.35,41.35,0,0,0-17.4,7.31l-8.16-8.16a13,13,0,1,0-9.59,9.59l8.22,8.22a41.3,41.3,0,0,0-7.1,17.34H235.16a13.08,13.08,0,1,0-11.08,20,13.13,13.13,0,0,0,11.28-6.46h12.39a41.38,41.38,0,0,0,7.17,17.22l-8.35,8.34a13.58,13.58,0,0,0-3.12-.37,13,13,0,1,0,12.71,10l8.35-8.35a41.3,41.3,0,0,0,17.21,7.18v11.29a13.08,13.08,0,1,0,13.56-.2v-11a41.38,41.38,0,0,0,17.35-7.09l9.57,9.57a12.9,12.9,0,0,0-.12,1.76,13.08,13.08,0,1,0,13.08-13.08Z" transform="translate(-211 -209)"/><path class="cls-1" d="M276.7,294.14a10.19,10.19,0,0,0,5.12,1.44c2.92,0,4.63-1.54,4.63-3.77,0-2.07-1.18-3.26-4.17-4.41-3.61-1.28-5.85-3.15-5.85-6.27,0-3.44,2.86-6,7.16-6a10.06,10.06,0,0,1,4.9,1.09l-.79,2.33a8.86,8.86,0,0,0-4.21-1.05c-3,0-4.17,1.8-4.17,3.31,0,2.07,1.35,3.09,4.4,4.27,3.75,1.45,5.65,3.25,5.65,6.51,0,3.41-2.53,6.37-7.75,6.37a11.46,11.46,0,0,1-5.65-1.42Z" transform="translate(-211 -209)"/><path class="cls-1" d="M297.48,277.92h-6.73v-2.43h16.39v2.43h-6.77v19.7h-2.89Z" transform="translate(-211 -209)"/><path class="cls-1" d="M327.63,286.32c0,7.62-4.63,11.66-10.28,11.66-5.84,0-10-4.53-10-11.23,0-7,4.37-11.63,10.28-11.63S327.63,279.75,327.63,286.32Zm-17.17.36c0,4.73,2.56,9,7.06,9s7.09-4.17,7.09-9.2c0-4.4-2.3-9-7.06-9S310.46,281.82,310.46,286.68Z" transform="translate(-211 -209)"/><path class="cls-1" d="M331.34,275.75a33.12,33.12,0,0,1,5.49-.43c2.82,0,4.89.66,6.2,1.84a5.93,5.93,0,0,1,1.94,4.63,6.51,6.51,0,0,1-1.71,4.73A9.16,9.16,0,0,1,336.5,289a9.52,9.52,0,0,1-2.3-.2v8.87h-2.86Zm2.86,10.67a9.74,9.74,0,0,0,2.36.23c3.45,0,5.55-1.67,5.55-4.73s-2.07-4.33-5.22-4.33a12,12,0,0,0-2.69.23Z" transform="translate(-211 -209)"/><path class="cls-2" d="M371.24,296.89A14.05,14.05,0,0,1,365.4,298c-6.24,0-10.94-3.95-10.94-11.2,0-6.93,4.7-11.63,11.56-11.63a11.71,11.71,0,0,1,5.25,1l-.69,2.33a10.44,10.44,0,0,0-4.46-.92c-5.19,0-8.64,3.32-8.64,9.13,0,5.42,3.12,8.9,8.51,8.9a11.4,11.4,0,0,0,4.66-.92Z" transform="translate(-211 -209)"/><path class="cls-2" d="M393.05,286.32c0,7.62-4.63,11.66-10.28,11.66-5.85,0-9.95-4.53-9.95-11.23,0-7,4.37-11.63,10.28-11.63S393.05,279.75,393.05,286.32Zm-17.18.36c0,4.73,2.56,9,7.06,9s7.1-4.17,7.1-9.2c0-4.4-2.3-9-7.06-9S375.87,281.82,375.87,286.68Z" transform="translate(-211 -209)"/><path class="cls-2" d="M401.62,297.62l-7.23-22.13h3.09l3.45,10.9c.95,3,1.77,5.68,2.36,8.27h.07c.62-2.56,1.54-5.35,2.53-8.24l3.74-10.93h3.05l-7.91,22.13Z" transform="translate(-211 -209)"/><path class="cls-2" d="M417.94,275.49v22.13h-2.86V275.49Z" transform="translate(-211 -209)"/><path class="cls-2" d="M422.93,275.78a41.31,41.31,0,0,1,6.08-.46c4.1,0,7,.95,9,2.76a10.21,10.21,0,0,1,3.12,7.95,11.74,11.74,0,0,1-3.18,8.6c-2.07,2.07-5.49,3.18-9.79,3.18a44.88,44.88,0,0,1-5.19-.26Zm2.86,19.57a18.07,18.07,0,0,0,2.89.17c6.11,0,9.42-3.42,9.42-9.4,0-5.22-2.92-8.53-9-8.53a16.56,16.56,0,0,0-3.35.29Z" transform="translate(-211 -209)"/><path class="cls-2" d="M450.06,279H450l-3.71,2-.56-2.2,4.66-2.5h2.47v21.35h-2.79Z" transform="translate(-211 -209)"/><path class="cls-2" d="M462.31,295.58a11.63,11.63,0,0,0,2.33-.1,8,8,0,0,0,4.46-2.07,9.41,9.41,0,0,0,2.83-5.68h-.1a6.25,6.25,0,0,1-5,2.3,6.18,6.18,0,0,1-6.3-6.53,7.32,7.32,0,0,1,7.29-7.59c4.37,0,7.06,3.55,7.06,9,0,4.69-1.58,8-3.68,10a10.65,10.65,0,0,1-6.21,2.86,13.2,13.2,0,0,1-2.65.17Zm1.05-12.28c0,2.66,1.6,4.53,4.1,4.53a4.76,4.76,0,0,0,4.2-2.23,1.85,1.85,0,0,0,.27-1.05c0-3.65-1.35-6.44-4.37-6.44C465.1,278.11,463.36,280.28,463.36,283.3Z" transform="translate(-211 -209)"/></svg>